# xmcd
#
# Track frame offsets: 
#        150
#        21564
#        37976
#        61299
#        76441
#        93183
#        111397
#        133985
#        150416
#        169859
#        189929
#        209503
#        227065
#        246915
#        262799
#        276553
#        292941
#        309162
#        325236
#        341029
#
# Disc length: 4795 seconds
#
# Revision: 4
# Processed by: cddbd v1.5.2PL0 Copyright (c) Steve Scherf et al.
# Submitted via: ExactAudioCopy v0.99pb5
#
DISCID=1e12b914
DTITLE=Various Artist - SZ - Diskothek - 1986
DYEAR=1986
DGENRE=Pop
TTITLE0=Stranglers - Always the sun
TTITLE1=Prince and The Revolution - Kiss
TTITLE2=Run DMC - Walk this way
TTITLE3=Timbuk 3 - The future's so bright I gotta wear shades
TTITLE4=Nick Cave and The Bad Seeds - Something's gotten hold of my hear
TTITLE4=t
TTITLE5=Smiths - There is a light that never goes out
TTITLE6=Stan Ridgway - Camouflage
TTITLE7=Bananarama - Venus
TTITLE8=Cameo - Word up!
TTITLE9=Talk Talk - Life's what you make it
TTITLE10=New Order - Bizarre love triangle
TTITLE11=Rio Reiser - Junimond
TTITLE12=Anita Baker - Sweet love
TTITLE13=Jan Hammer - Crockett's theme
TTITLE14=Bangles - Manic Monday
TTITLE15=Erasure - Sometimes
TTITLE16=XTC - Dear God
TTITLE17=Fall - Hey! Luciani
TTITLE18=Julian Cope - World shut your mouth
TTITLE19=Depeche Mode - Stripped
EXTD=
EXTT0=
EXTT1=
EXTT2=
EXTT3=
EXTT4=
EXTT5=
EXTT6=
EXTT7=
EXTT8=
EXTT9=
EXTT10=
EXTT11=
EXTT12=
EXTT13=
EXTT14=
EXTT15=
EXTT16=
EXTT17=
EXTT18=
EXTT19=
PLAYORDER=
